<svg width="496" height="437" viewBox="0 0 496 437" fill="none" xmlns="http://www.w3.org/2000/svg">
<g clip-path="url(#clip0_6_3)">
<path d="M26.6255 76.7533C23.7234 76.7533 21.4286 79.1177 21.4286 81.9549C21.4286 84.7921 23.7909 87.1564 26.6255 87.1564C29.4602 87.1564 31.8224 84.7921 31.8224 81.9549C31.8224 79.1177 29.4602 76.7533 26.6255 76.7533Z" fill="#FF88C4"/>
<path d="M44.0385 76.7533C41.1363 76.7533 38.8416 79.1177 38.8416 81.9549C38.8416 84.7921 41.1363 87.1564 44.0385 87.1564C46.9407 87.1564 49.2354 84.7921 49.2354 81.9549C49.2354 79.1177 46.9407 76.7533 44.0385 76.7533Z" fill="#36BFE3"/>
<path d="M60.9116 76.7533C58.0094 76.7533 55.7147 79.1177 55.7147 81.9549C55.7147 84.7921 58.0769 87.1564 60.9116 87.1564C63.7462 87.1564 66.1085 84.7921 66.1085 81.9549C66.1085 79.1177 63.7462 76.7533 60.9116 76.7533Z" fill="#FFCE76"/>
<path d="M255.154 325.889C253.669 332.509 251.914 339.129 249.417 345.479C247.055 351.424 243.815 356.963 239.293 361.557C235.176 365.812 230.182 369.19 224.918 371.96C219.518 374.729 213.849 376.891 208.044 378.647C201.633 380.539 194.816 382.565 188.134 381.552C176.256 379.796 166.672 369.663 162.285 358.989C159.788 352.91 159.518 346.898 159.18 340.412C158.978 336.9 158.438 333.454 156.48 330.482C154.793 327.915 152.363 325.956 150.406 323.659C142.645 314.742 142.982 301.84 149.866 292.653C151.621 290.288 153.646 287.991 154.658 285.154C155.941 281.709 154.456 278.466 153.848 275.021C152.971 269.684 155.401 264.28 160.058 261.443C161.542 260.16 162.96 258.876 164.445 257.66C169.979 252.999 175.716 248.608 181.655 244.42C183.207 243.339 184.76 242.258 186.38 241.245C187.459 240.502 188.674 239.421 190.024 239.421C191.239 239.421 192.116 240.164 192.994 240.907C194.344 242.055 195.626 243.204 196.908 244.352C202.173 249.013 207.437 253.81 212.229 258.876C217.021 263.943 221.07 269.414 225.12 275.089C227.212 278.061 229.507 280.763 232.072 283.33C234.636 285.762 237.336 287.991 239.833 290.423C244.895 295.287 248.472 300.962 251.509 307.176C252.994 310.149 254.614 313.121 255.424 316.296C256.234 319.471 255.896 322.714 255.154 325.889Z" fill="#36BFE3"/>
<path d="M512.569 360.881C510.342 372.297 487.867 362.908 477.743 367.771C475.179 368.987 472.614 370.136 469.914 371.284C453.581 381.485 434.683 387.092 415.988 391.01C371.173 400.332 323.321 404.858 279.249 389.456C261.498 383.241 244.963 373.648 231.127 360.881C224.31 354.599 218.236 347.573 213.174 339.804C208.112 332.103 204.602 323.592 202.24 314.675C202.038 313.999 202.983 313.661 203.253 314.337C203.927 315.891 204.602 317.377 205.345 318.931C205.075 317.985 204.872 316.972 204.737 315.958C200.755 312.108 204.467 305.96 206.56 302.313C208.922 298.124 211.824 294.206 214.929 290.491C218.708 286.032 222.825 281.844 227.01 277.656L228.967 275.697C236.796 267.793 244.423 259.687 249.012 249.486C251.172 244.757 252.319 239.556 255.289 235.233C258.191 230.977 262.646 228.275 267.033 225.843C268.72 224.897 270.407 224.019 272.162 223.208C272.972 222.803 273.782 222.465 274.592 222.127C277.764 220.776 280.666 219.83 283.568 219.29C285.121 218.952 286.74 218.75 288.293 218.682C291.195 216.318 294.232 214.088 297.337 211.994C298.552 211.116 299.766 210.305 300.981 209.495C306.921 205.509 313.062 201.659 319.407 198.281C332.298 191.458 346.066 186.527 360.914 185.919C367.866 185.649 374.818 186.189 381.702 187.27C389.194 186.324 396.753 186.189 403.974 188.283C408.496 189.634 412.276 191.796 415.65 194.566C418.485 196.862 421.05 199.565 423.412 202.469C424.087 202.942 424.762 203.415 425.369 203.956C428.676 206.658 431.511 209.63 434.076 212.872C434.616 213.48 435.021 214.088 435.493 214.764C436.236 215.71 436.978 216.723 437.653 217.804C441.297 223.141 444.402 228.95 447.439 234.76C447.709 235.165 448.047 235.57 448.317 236.043L449.734 238.07C458.306 250.499 466.54 263.132 474.436 275.967C481.253 287.113 488.272 298.395 494.009 310.149C499.206 320.822 516.214 341.696 512.434 361.151L512.569 360.881Z" fill="#36BFE3"/>
<path d="M449.869 237.8C435.291 244.757 421.32 253.404 410.251 265.294C404.649 271.306 399.722 277.994 396.078 285.424C392.433 292.788 390.341 300.556 389.261 308.73C389.261 309.203 388.451 309.135 388.451 308.73C388.451 299.61 391.353 290.558 395.47 282.52C403.232 267.388 415.65 255.431 429.824 246.244C435.831 242.326 442.107 238.948 448.587 235.84L450.004 237.867H449.869V237.8Z" fill="#FF88C4"/>
<path d="M469.577 147.076C467.619 155.115 463.502 162.41 457.833 168.49C446.427 180.717 430.634 187.608 415.65 194.363C395.943 203.348 376.37 212.332 356.662 221.114C347.483 225.235 338.237 228.95 328.518 231.72C318.799 234.489 309.148 236.854 299.091 237.394C298.349 237.394 298.012 236.786 298.147 236.246C296.864 235.841 295.582 235.368 294.3 234.827C292.275 234.017 290.317 233.071 288.428 231.99C283.771 229.355 278.574 226.113 274.524 222.06C274.119 221.654 273.714 221.249 273.309 220.776C271.69 219.02 270.34 217.061 269.327 214.967C265.143 206.32 270.88 195.917 274.322 188.013C281.813 170.855 290.79 154.237 301.656 138.902C322.511 109.381 351.465 84.5219 386.426 73.9161C404.514 68.4443 425.032 66.5528 442.31 75.5374C450.139 79.5905 456.483 85.6703 460.87 93.3713C465.392 101.343 468.092 110.395 469.712 119.379C471.399 128.499 471.669 138.091 469.442 147.143H469.577V147.076Z" fill="#36BFE3"/>
<path d="M422.062 85.6027C421.59 84.3868 420.442 83.7788 419.228 83.5086C416.798 83.0357 413.963 83.3059 411.466 83.6437C409.644 83.9139 407.754 84.3192 405.999 84.9272C401.41 85.6027 396.955 86.9538 392.703 88.7777C383.727 92.6282 375.493 98.1 367.394 103.504C359.699 108.638 352.14 114.043 344.919 119.852C330.205 131.539 316.504 144.712 304.828 159.506C301.656 163.559 298.619 167.747 295.784 172.003C292.815 176.461 289.913 181.123 288.225 186.324C286.673 191.053 286.538 196.187 288.833 200.78C289.778 202.74 291.195 204.428 292.747 205.982C296.392 209.562 300.509 210.778 305.031 207.13C313.197 200.578 320.014 194.836 327.978 187.945C340.397 177.272 352.41 166.058 363.951 154.372C370.566 147.684 376.977 140.793 383.322 133.768C386.089 131.606 388.721 129.377 391.218 126.945C393.108 125.121 394.863 123.162 396.618 121.136C401.207 117.015 405.729 112.759 409.711 108.165C412.546 104.855 415.178 101.343 417.27 97.5596C418.35 95.533 420.982 91.3447 421.455 87.9671C422.062 87.3591 422.265 86.4809 421.995 85.6703H422.062V85.6027Z" fill="#202B59"/>
<path d="M291.6 117.15C286.673 124.986 275.537 125.527 267.303 125.459C262.916 125.459 257.921 125.459 254.007 123.162C250.227 121 248.945 116.812 249.755 112.624C251.644 102.896 259.474 95.1953 266.56 88.8453C266.763 88.6426 267.168 88.9804 266.965 89.183C266.763 89.4533 266.56 89.6559 266.425 89.9261C268.787 88.44 271.892 87.9671 274.389 88.7102C276.752 89.4533 278.709 91.2772 280.801 92.5607C283.096 93.9117 285.526 95.0601 287.618 96.6139C293.962 101.275 295.784 110.327 291.6 117.015V117.15Z" fill="#36D7BE"/>
<path d="M343.569 72.2948C326.223 64.7964 292.477 59.2571 272.837 85.6703C249.687 116.677 242.331 135.187 244.625 152.345C247.797 175.786 262.376 184.365 278.979 186.392C295.582 188.418 373.738 181.325 375.088 134.511C376.1 99.1133 360.847 79.8607 343.501 72.2948H343.569Z" fill="#202B59"/>
<path d="M344.986 79.4554C335.537 74.1863 308.203 73.9836 307.73 63.4454C307.191 52.9071 317.382 31.9657 343.636 35.0731C369.891 38.113 379.137 54.9337 377.18 70.5384C375.223 86.1432 366.584 89.1155 357.607 88.8453C348.631 88.5751 344.986 79.4554 344.986 79.4554Z" fill="#202B59"/>
<path d="M359.227 179.096L352.883 184.027C343.974 190.985 335.132 198.078 326.156 204.969C325.616 205.374 325.076 205.374 324.536 205.036C316.572 200.51 300.036 178.285 300.036 178.285C300.036 178.285 310.768 155.452 315.222 147.414C317.652 143.023 320.419 138.632 323.659 134.781C326.831 130.931 329.8 135.389 332.095 137.956C339.384 145.927 346.336 154.169 353.018 162.613C354.84 164.91 356.662 167.274 358.417 169.571C359.632 171.192 361.522 172.949 362.197 174.84C362.872 176.867 360.577 178.015 359.294 179.028L359.227 179.096Z" fill="#FFC5C5"/>
<path d="M338.034 163.086C334.862 170.382 330.408 177.137 325.751 183.554C321.701 189.026 317.449 195.646 310.498 197.47C303.816 199.227 295.784 196.66 289.643 194.093C286.335 192.742 283.096 190.85 280.666 188.216C279.316 186.729 278.034 185.108 276.886 183.419C274.727 182.879 272.5 182.068 270.947 180.447C268.382 177.812 269.597 174.84 270.947 171.868C274.052 164.572 272.027 157.209 267.303 151.197C263.388 146.13 260.283 140.996 258.866 134.646C257.111 126.607 258.056 117.893 261.701 110.53C265.21 103.572 270.137 97.8974 276.414 94.182C283.501 89.9261 291.532 89.4533 299.361 91.615C306.718 93.574 314.345 96.9516 320.621 101.343C326.966 105.801 331.488 112.016 335.2 118.771C338.709 125.189 341.476 132.282 342.084 139.578C342.759 147.414 341.274 155.993 338.169 163.154L338.034 163.086Z" fill="#FFC5C5"/>
<path d="M296.054 155.723C295.649 156.939 295.109 158.019 294.434 159.033C293.895 159.911 293.355 160.992 292.545 161.6C290.857 162.883 288.765 161.194 287.483 159.843C286.875 159.168 285.998 158.222 285.795 157.209C285.661 156.533 285.93 155.858 286.403 155.655C286.875 154.98 287.618 154.642 288.293 154.372C289.508 153.899 290.79 153.629 292.072 153.493C293.22 153.358 294.367 153.358 295.514 153.493C296.594 153.629 296.392 154.642 296.122 155.655L296.054 155.723Z" fill="white"/>
<path d="M355.042 131.066C354.165 139.578 345.661 140.793 338.709 141.537C321.364 143.361 303.478 140.388 287.483 133.43C280.194 130.255 272.23 126.337 267.033 120.122C262.781 114.988 260.958 107.287 264.67 101.343C264.67 101.072 264.805 100.735 264.873 100.464C265.21 99.3835 265.683 98.3027 266.155 97.2894C267.235 94.9926 268.113 93.8442 269.057 92.7633C279.249 80.6714 295.919 76.6857 310.903 79.5905C319.137 81.1442 327.168 84.4543 334.255 88.9804C341.207 93.3713 346.134 99.4511 349.306 107.017C350.993 111.07 352.275 115.258 353.355 119.514C354.3 123.23 355.38 127.148 354.975 131.066H355.042Z" fill="#202B59"/>
<path d="M296.054 154.304C295.784 153.696 295.042 153.629 294.502 153.561L292.882 153.358C291.735 153.358 290.587 153.358 289.44 153.629C287.213 154.101 285.053 155.047 283.298 156.533C282.623 157.141 283.501 158.155 284.243 157.614C285.863 156.331 287.753 155.52 289.778 155.115C290.79 154.912 291.802 154.912 292.815 154.98C293.287 154.98 293.827 155.047 294.3 155.182C294.839 155.317 295.447 155.52 295.919 155.182C296.189 154.98 296.189 154.642 296.122 154.372H296.054V154.304Z" fill="#202B59"/>
<path d="M291.937 160.249C291.465 159.1 290.25 157.682 289.778 157.276C288.968 156.668 286.673 156.533 285.998 157.412C284.311 159.573 289.44 162.005 290.857 162.073C292.275 162.073 292.41 161.262 292.005 160.316L291.937 160.249Z" fill="#202B59"/>
<path d="M289.305 142.55C289.17 143.158 288.495 143.563 288.023 143.833C287.213 144.374 286.403 144.847 285.593 145.387C284.041 146.333 282.556 147.346 281.004 148.292C279.654 149.17 278.236 150.318 276.752 150.859C275.604 151.264 274.254 151.197 273.377 150.183C272.635 149.305 272.567 147.887 272.972 146.806C273.512 145.522 274.794 144.644 276.009 144.104C277.359 143.428 278.844 142.955 280.329 142.55C282.758 141.874 285.391 141.537 287.955 141.807C288.293 141.401 289.17 141.199 289.373 142.077C289.643 142.145 289.643 142.482 289.373 142.55H289.305Z" fill="#202B59"/>
<path d="M296.257 180.312C294.299 181.258 292.477 182.474 290.722 183.757C289.103 184.77 287.483 185.851 285.93 187.067C286.605 188.824 287.82 189.432 289.103 189.769C290.452 190.107 292.207 190.58 293.49 189.972C294.839 189.364 295.379 187.81 295.852 186.459C296.459 184.635 296.797 182.744 296.932 180.852C296.932 180.447 296.594 180.177 296.257 180.38V180.312Z" fill="white"/>
<path d="M329.53 138.362C324.469 140.658 319.744 142.888 314.142 143.361C307.865 143.833 301.589 142.482 295.717 140.388C285.121 136.673 273.917 131.133 267.843 121.203C264.4 115.529 263.253 109.381 264.063 102.829C264.063 102.356 263.456 102.086 263.253 102.559C259.001 113.84 266.628 126.27 275.334 133.025C280.396 136.943 286.2 139.78 292.14 142.077C298.417 144.509 305.031 146.333 311.847 146.333C318.124 146.333 326.223 144.644 329.935 138.97C330.138 138.699 329.935 138.226 329.53 138.362Z" fill="#202B59"/>
<path d="M353.895 149.913C351.735 163.221 339.249 172.273 325.953 170.111C312.657 167.95 303.613 155.452 305.773 142.145C307.933 128.837 320.419 119.785 333.715 121.946C347.011 124.108 356.055 136.605 353.895 149.913Z" fill="#36D7BE"/>
<path d="M323.456 137.213C322.849 136.267 322.241 135.389 321.634 134.444C320.014 134.511 319.542 133.092 320.149 132.282C316.977 127.823 313.4 123.635 309.62 119.649C301.319 110.597 291.127 100.329 278.101 99.3835C266.965 98.6405 257.179 106.341 252.522 116.002C252.387 116.272 251.982 116.204 252.049 115.866C252.184 115.123 252.319 114.313 252.522 113.57C252.252 113.57 251.914 113.299 251.982 112.894C253.264 107.828 250.362 109.246 252.724 104.585C255.694 98.5729 262.781 90.2639 266.56 87.3591C272.837 82.4953 281.543 81.482 289.103 83.1033C296.864 84.7921 303.883 88.9128 309.418 94.5197C315.155 100.329 319.272 107.625 322.174 115.123C323.591 118.839 324.941 122.757 325.751 126.675C326.156 128.837 325.751 131.471 324.401 133.025C325.008 133.971 325.683 134.849 326.223 135.862C327.236 137.551 324.469 138.834 323.456 137.146V137.213Z" fill="#36D7BE"/>
<path d="M487.665 147.616C486.315 165.248 478.756 182.474 467.484 196.052C461.748 202.875 454.728 209.09 446.292 212.332C443.66 213.345 440.893 214.021 438.125 214.359C437.315 214.494 436.506 214.561 435.628 214.561C434.481 214.561 433.266 214.629 432.051 214.561H430.499C425.572 214.359 420.577 213.751 415.583 214.088C394.863 215.575 377.99 229.693 360.172 238.813C351.33 243.339 341.882 247.122 331.893 247.865C321.769 248.608 312.252 245.636 303.411 240.974C296.189 237.192 286.673 232.328 284.041 223.951C283.568 222.397 283.433 220.776 283.568 219.155C283.973 214.696 286.538 210.373 290.925 209.225C290.452 208.549 290.925 208.144 291.33 208.549C293.49 208.887 293.895 209.833 293.625 210.576C294.772 211.251 296.054 211.724 297.404 211.859C299.496 212.129 301.791 211.859 303.748 210.981C308.54 209.022 312.32 205.036 315.965 201.456C317.112 200.308 318.327 199.159 319.474 198.078L328.181 189.567C336.145 181.798 343.974 173.894 351.735 165.856C366.651 150.454 387.304 134.106 401.005 117.69C407.416 109.989 416.055 103.91 420.172 94.7224C422.13 90.3314 419.835 86.0756 421.32 81.5496C422.737 77.4288 420.375 73.3081 424.694 72.4299C442.985 68.8496 459.385 84.9272 470.252 97.4245C476.528 104.653 481.793 112.759 484.762 121.879C487.462 130.188 488.272 138.97 487.597 147.616H487.665Z" fill="#36BFE3"/>
<path d="M232.274 369.798C231.734 369.122 231.059 368.582 230.047 368.109L115.513 317.58C112.273 315.958 107.751 316.228 105.321 318.052L37.4918 371.352C33.3073 374.189 35.8045 383.781 38.9766 385.403L153.511 435.932C156.75 437.554 161.272 437.283 163.702 435.459L231.532 382.16C233.894 380.269 235.446 371.419 232.207 369.798H232.274Z" fill="#202B59"/>
<path d="M210.542 383.106C207.572 385.268 204.332 387.632 200.89 390.131L90.6081 339.332C92.6329 337.71 94.5902 336.157 96.4124 334.738L210.542 383.106Z" fill="#36D7BE"/>
<path d="M224.108 372.77C224.108 372.77 218.641 377.161 210.542 383.106L96.4124 334.738C104.916 327.983 111.126 323.051 111.396 322.849C112.273 322.241 223.23 372.5 224.108 372.77Z" fill="#FF88C4"/>
<path d="M200.89 390.064C183.005 402.966 161.272 418.369 160.395 418.706C158.91 419.179 53.015 374.189 48.628 372.77C48.628 372.77 72.3177 353.855 90.6081 339.332L200.89 390.131V390.064Z" fill="#FFCE76"/>
<path d="M261.431 372.77C259.811 377.026 255.829 378.647 251.509 377.567C246.853 376.418 242.331 373.784 238.079 371.554C233.624 369.122 229.575 365.947 224.513 364.867C219.316 363.786 214.051 363.516 208.922 361.759C203.995 360.07 199.54 356.895 194.411 355.747C192.791 355.409 192.386 354.328 190.834 354.531C190.024 355.544 188.067 357.638 187.324 358.719C184.287 363.313 181.723 369.393 175.513 370.676C169.776 371.825 165.862 367.771 166.267 362.367C166.469 359.462 167.549 356.625 168.629 353.923C169.844 350.816 172.814 347.708 174.501 344.871C177.268 340.075 179.09 335.684 183.005 331.698C182.128 331.428 181.318 331.158 180.44 330.955C172.949 329.199 165.052 331.158 159.72 336.9C155.738 341.155 151.958 348.316 144.602 346.357C140.62 345.344 139.405 343.047 139.202 339.196C136.705 341.155 133.803 341.155 131.373 340.142C126.446 338.048 124.354 332.171 125.232 327.172C126.244 321.362 130.428 316.364 134.95 312.851C135.288 312.581 135.693 312.31 136.098 312.04C132.858 310.892 129.551 310.149 126.176 309.608C123.477 309.203 120.71 308.663 118.145 307.649C113.218 305.555 110.451 300.354 113.016 295.22C116.188 289.005 123.207 287.924 129.484 288.734C157.29 292.315 186.177 305.69 211.014 318.187C220.936 323.186 230.519 328.726 240.103 334.4C247.19 338.588 254.884 341.899 261.026 347.438C261.363 347.708 261.633 347.978 261.971 348.249C260.351 349.87 258.596 351.288 256.774 352.64C261.633 357.909 263.928 365.947 261.363 372.77H261.431Z" fill="#FFC5C5"/>
<path d="M251.644 339.264C251.982 338.859 252.252 338.859 252.522 338.859C252.049 338.656 251.644 338.386 251.172 338.183L215.334 319.944C205.345 314.877 195.423 309.811 185.232 305.15C183.545 304.407 181.925 303.664 180.238 302.921C179.158 302.448 178.078 301.975 176.998 301.569C166.402 297.043 155.603 293.058 144.399 290.221C134.883 287.789 118.82 283.195 112.678 294.206C110.046 298.935 111.463 304.947 116.323 307.514C119.157 309 122.599 309.473 125.704 310.081C128.471 310.622 131.238 311.432 134.073 311.635C131.981 313.864 129.889 316.093 128.134 318.593C124.624 323.524 122.667 329.739 125.299 335.549C126.514 338.183 128.606 340.412 131.373 341.358C133.601 342.101 136.638 341.966 138.663 340.615C138.865 341.358 139.135 342.101 139.54 342.777C141.227 345.884 144.804 348.249 148.449 347.505C151.958 346.762 154.253 343.722 156.48 341.155C162.757 333.927 172.679 328.996 181.993 332.441C180.305 334.198 178.82 336.157 177.538 338.048C173.691 343.52 169.776 348.789 167.617 355.207C165.997 359.935 164.04 368.312 169.304 371.487C174.838 374.797 180.71 370.136 183.882 365.812C187.797 360.408 191.576 351.153 199.675 351.694C200.688 351.694 201.025 350.208 200.013 350.072C195.153 349.6 191.036 352.504 188.067 356.085C184.49 360.476 182.06 366.893 176.458 369.258C173.691 370.406 170.181 369.798 169.371 366.555C168.629 363.651 169.439 360.273 170.249 357.503C171.936 351.694 175.446 346.627 178.28 341.358C180.103 337.98 182.262 335.211 185.03 332.509C186.514 331.09 187.999 329.604 189.822 328.793C190.159 328.658 190.429 328.523 190.699 328.253C191.306 327.645 190.834 327.104 190.159 327.037C189.619 327.037 188.674 327.645 188.202 327.848C186.649 328.523 185.165 329.536 183.882 330.685C177.336 327.915 169.979 328.793 163.77 332.171C160.53 333.927 157.628 336.427 155.198 339.129C152.971 341.628 150.474 345.682 146.559 344.871C142.24 343.993 140.687 339.061 141.362 335.278C142.037 331.36 144.197 327.645 146.559 324.537C150.676 319.066 156.21 314.607 162.487 311.838C165.929 310.284 169.574 309.068 173.286 308.46C175.108 308.122 176.931 307.987 178.753 307.919C179.765 307.919 180.778 307.919 181.79 307.919C182.87 307.919 183.882 307.717 184.962 307.784C194.546 312.175 203.927 316.972 213.309 321.768C225.322 327.848 237.269 333.995 249.215 340.075C249.957 340.48 250.7 340.818 251.442 341.223C251.779 341.426 252.049 341.426 252.319 341.223C252.049 340.683 251.712 340.142 251.307 339.669C251.307 339.534 251.442 339.467 251.509 339.399L251.644 339.264ZM119.967 306.028C117.47 305.285 115.04 304.001 114.298 301.299C113.488 298.732 114.298 295.827 115.985 293.801C119.765 289.41 126.176 289.14 131.441 289.883C137.313 290.693 143.117 292.18 148.786 293.801C154.388 295.355 159.855 297.246 165.322 299.273C161.002 298.665 156.885 298.259 152.836 299.002C149.529 299.61 146.424 301.097 143.589 302.988C140.755 304.88 138.258 307.244 135.828 309.676C130.901 307.514 125.029 307.447 119.9 305.96H119.967V306.028ZM180.035 305.96C178.145 305.758 176.188 305.825 174.231 305.96C170.654 306.231 167.009 306.974 163.635 308.257C156.683 310.892 150.271 315.35 145.547 321.092C141.835 325.618 137.718 332.374 138.393 338.588C137.38 338.994 136.435 339.467 135.355 339.602C133.871 339.804 132.386 339.602 131.036 338.859C128.741 337.643 127.324 335.346 126.649 332.914C124.962 326.834 128.336 321.227 132.116 316.769C133.601 315.012 135.22 313.189 136.84 311.5L137.38 310.959C139.81 308.527 142.375 306.298 145.209 304.474C147.976 302.65 151.081 301.367 154.388 300.961C157.898 300.556 161.475 300.961 164.917 301.434C168.022 301.84 171.126 302.38 174.231 302.988C176.661 304.001 179.09 305.082 181.52 306.163L179.9 305.96H180.035Z" fill="white"/>
<path d="M208.989 359.733L214.051 362.57C212.364 361.962 210.677 361.084 209.057 360.003C208.989 360.003 208.989 359.8 209.057 359.733H208.989Z" fill="#FFC5C5"/>
<path d="M281.678 345.614C281.274 353.112 280.194 360.611 278.304 367.906C277.359 371.487 276.279 375 274.997 378.445C274.592 379.458 274.322 380.742 273.107 381.079C271.892 381.417 259.811 383.038 258.731 382.565C244.828 376.756 241.318 368.312 227.617 362.029C227.212 363.245 225.525 362.975 225.795 361.759C225.255 360.948 224.648 360.678 224.04 360.408C223.568 360.205 223.905 359.53 224.378 359.665C224.918 359.868 225.457 360.07 226.065 360.273C226.807 355.139 226.2 349.6 228.495 344.803C230.857 340.007 235.109 338.588 240.171 339.196C253.737 340.818 267.235 342.777 280.801 344.601C281.206 344.601 281.678 345.141 281.678 345.614Z" fill="#FFC5C5"/>
<path d="M506.765 380.944C500.758 393.104 490.364 402.899 478.688 409.722C465.73 417.288 451.084 421.408 436.303 423.435C419.768 425.732 402.894 426.002 386.224 425.124C369.486 424.246 353.018 421.746 336.55 418.571C328.181 417.017 319.812 415.396 311.443 413.842C303.951 412.424 290.385 408.573 283.501 405.128C271.96 399.251 269.26 390.739 266.223 378.175C263.658 367.636 265.21 355.95 270.61 346.492C271.892 344.263 273.174 342.371 274.659 340.683C279.789 334.806 285.256 329.672 292.005 326.564C296.257 324.605 301.049 323.524 305.706 323.862C310.633 324.2 314.547 326.159 318.529 328.861C322.309 331.428 325.953 333.252 330.61 333.049C335.132 332.846 339.519 331.158 343.434 328.996C351.06 324.808 357.27 318.458 364.626 313.932C371.443 309.676 379.272 307.244 387.236 309.473C394.998 311.635 401.342 316.904 409.036 319.336C417.878 322.038 426.382 318.728 434.481 315.35C440.218 312.918 445.954 310.824 452.029 309.946C455.538 308.865 459.115 307.852 462.693 306.974C470.117 305.285 477.608 304.407 484.695 307.852C490.567 310.689 495.156 315.553 499.071 320.687C503.593 326.699 507.71 333.252 510.207 340.412C514.729 353.653 512.839 368.582 506.697 381.012L506.765 380.944Z" fill="#36BFE3"/>
<path d="M280.396 351.829C280.396 357.03 279.721 383.106 272.297 388.713C271.217 389.523 264.063 388.443 262.848 387.699C261.093 386.619 259.339 385.605 257.584 384.592C254.277 382.633 250.97 380.674 247.73 378.715C247.257 378.445 247.055 377.837 247.257 377.364C253.129 365.272 252.589 351.559 251.847 338.386C251.847 337.778 252.319 337.237 252.927 337.373C259.339 338.791 265.818 339.94 272.162 341.493C274.254 340.48 276.549 341.02 278.169 342.912C280.126 345.276 280.396 348.857 280.396 351.829Z" fill="#36BFE3"/>
<path d="M421.32 82.698C419.902 82.7655 418.688 82.9682 417.338 83.3059C416.258 83.5761 416.325 85.4676 417.473 85.5352H420.105C420.105 91.0745 418.485 96.3436 415.246 100.802C412.073 105.193 408.024 108.976 404.177 112.827C395.875 121.203 387.574 129.647 379.205 137.956C362.467 154.642 345.459 171.057 327.978 186.932C322.984 191.458 317.854 195.984 312.725 200.443C310.16 202.672 307.73 204.969 305.166 207.13C303.951 208.144 302.534 209.292 300.846 209.427C299.024 209.562 297.202 208.279 297.202 206.387C297.202 205.712 296.189 205.644 296.054 206.32C295.717 208.144 296.662 209.697 298.282 210.508C300.171 211.521 302.264 211.116 304.086 210.17C306.718 208.819 309.013 206.725 311.24 204.834C313.67 202.74 316.1 200.713 318.529 198.551C328.383 190.04 337.967 181.258 347.483 172.273C366.584 154.304 385.076 135.727 403.569 117.082C408.294 112.286 413.558 107.693 417.405 102.221C421.185 96.8841 423.075 90.5341 422.872 83.9815C422.872 83.2384 422.13 82.698 421.455 82.698H421.32Z" fill="white"/>
<path d="M181.655 235.435C173.354 244.149 163.702 251.918 157.155 262.051C156.75 262.727 155.941 262.794 155.468 262.186C148.516 253.607 136.84 249.216 125.974 251.107C120.777 252.053 116.323 255.228 111.058 255.904C105.929 256.579 100.529 255.093 96.1425 252.391C87.031 246.716 81.3617 235.976 78.3245 225.978C75.2199 215.98 73.7351 202.74 81.4292 194.431C84.8713 190.648 89.4607 187.878 93.9827 185.514C98.1672 183.284 102.689 181.46 107.414 182.271C108.629 181.595 109.911 180.92 111.193 180.312C121.789 175.448 133.061 175.989 143.522 180.987C148.989 183.622 153.916 187.202 158.505 191.188C162.96 195.038 167.414 199.092 171.194 203.618C175.243 208.482 177.403 214.899 179.9 220.641C181.183 223.546 182.735 226.451 183.882 229.49C184.827 232.125 183.41 233.679 181.655 235.503V235.435Z" fill="#FFC5C5"/>
<path d="M138.055 213.21C135.558 222.6 126.244 231.72 114.23 232.395C113.555 232.395 112.746 232.057 112.543 231.45C111.666 228.612 110.721 225.843 109.978 223.005C109.708 221.925 111.193 221.317 111.936 221.992C115.243 217.939 122.464 218.277 125.097 213.48C127.931 208.346 127.256 200.78 124.894 195.646C123.544 192.674 121.115 190.04 117.537 188.756C115.918 188.148 114.163 187.878 112.408 188.013C110.586 188.148 109.101 189.161 107.279 189.364C104.646 189.769 104.039 188.216 103.837 186.392C103.432 182.609 103.162 178.893 102.757 175.11C102.689 174.3 104.242 174.165 104.309 175.043C104.309 175.313 104.309 175.583 104.377 175.853C104.849 175.853 105.389 175.853 105.861 175.786C106.334 175.448 106.874 175.245 107.481 175.178C108.156 175.11 108.898 175.313 109.438 175.651C112.138 175.651 114.838 175.786 117.537 176.056C120.71 176.394 124.759 176.529 126.986 178.691C129.281 180.852 130.833 183.892 132.318 186.527C134.073 189.567 135.558 192.674 136.638 195.849C138.528 201.456 139.472 207.401 137.92 213.143H138.055V213.21Z" fill="#36D7BE"/>
<path d="M106.224 170.119L23.6729 188.18L38.561 256.352L121.112 238.292L106.224 170.119Z" fill="#36D7BE"/>
<path d="M106.334 170.111C108.224 178.826 91.283 189.904 68.4707 194.903C45.6583 199.902 25.6131 196.862 23.7234 188.148C21.8336 179.434 38.7741 168.355 61.5865 163.356C84.3988 158.357 104.444 161.397 106.334 170.111Z" fill="#36D7BE"/>
<path d="M99.1796 171.665C100.664 178.488 86.5586 187.337 67.6608 191.526C48.763 195.646 32.2949 193.485 30.81 186.662C29.3252 179.839 43.4311 170.99 62.3289 166.801C81.2267 162.681 97.6948 164.842 99.1796 171.665Z" fill="#202B59"/>
<path d="M121.182 238.34C123.072 247.054 106.131 258.133 83.319 263.132C60.5066 268.131 40.4614 265.091 38.5716 256.377C36.6819 247.662 53.6224 236.584 76.4348 231.585C99.2471 226.586 119.292 229.626 121.182 238.34Z" fill="#36D7BE"/>
<path d="M151.824 205.712C145.614 207.806 139 203.955 135.22 198.821C133.128 204.091 131.576 216.993 124.354 216.993C117.133 216.993 113.825 210.035 113.218 203.888C112.678 198.349 112.746 192.134 114.5 186.594C115.58 179.974 120.237 174.232 126.446 171.327C133.803 167.882 142.78 168.693 149.529 173.084C155.941 177.205 174.973 191.256 177.606 216.318C178.415 224.154 159.585 203.145 151.891 205.779H151.824V205.712Z" fill="#FFC5C5"/>
<path d="M193.601 247.527C193.129 249.891 191.576 251.648 189.957 253.202C188.269 254.823 186.447 256.444 184.692 258.065C178.078 264.078 170.924 269.752 162.487 272.859C162.082 273.265 161.475 273.467 160.8 273.467C160.058 273.738 159.518 273.603 159.315 273.265C157.763 272.387 156.818 270.563 155.941 269.212C154.253 266.374 152.498 263.605 150.744 260.835C149.664 259.079 147.976 257.12 148.989 254.958C150.069 252.729 152.498 250.77 154.118 248.946C156.008 246.852 157.898 244.825 159.788 242.731C163.77 238.407 167.684 234.017 171.666 229.693C174.096 227.059 177.875 221.249 182.195 222.533C184.355 223.141 185.3 225.572 186.312 227.329C187.459 229.423 188.539 231.585 189.552 233.746C191.509 237.8 194.411 242.798 193.466 247.527H193.601Z" fill="#36BFE3"/>
<path d="M23.0484 283.533C24.8707 280.29 24.4658 279.142 35.332 283.533C46.1983 287.924 122.937 318.255 132.116 322.781C141.295 327.307 143.454 329.604 145.007 337.305C146.627 344.938 155.063 399.183 156.278 402.899C157.425 406.614 156.143 411.14 154.793 413.707C153.443 416.207 139.81 409.316 139.81 409.316L35.332 329.874L23.0484 283.533Z" fill="white"/>
<path d="M154.726 411.343L142.105 335.684C141.632 332.982 138.932 329.807 135.963 328.591C135.963 328.591 27.6379 282.925 27.4354 282.857C21.4961 280.358 16.1642 284.951 17.1091 290.626C17.7166 294.544 18.3915 298.462 19.0664 302.448C21.1587 314.81 23.1834 327.24 25.2757 339.602C26.6255 347.776 27.9754 355.882 29.3252 364.056C29.7977 366.758 32.4973 369.933 35.467 371.149L143.994 416.882C148.584 421.003 155.131 413.978 154.726 411.275V411.343Z" fill="#202B59"/>
<path d="M88.3809 362.975C83.5214 374.324 71.3728 364.326 70.293 356.152C69.753 352.099 70.6304 346.56 75.2199 345.546C83.5889 343.723 91.553 355.612 88.3809 362.975Z" fill="#36D7BE"/>
<path d="M242.6 306.568C239.631 305.217 238.686 301.097 237.674 298.259C236.391 294.814 234.839 291.369 233.152 288.059C231.464 284.749 229.574 281.439 227.617 278.264C227.415 277.994 227.28 277.723 227.077 277.453L229.035 275.494C229.035 275.494 229.507 276.17 229.709 276.507C231.802 279.48 233.692 282.587 235.379 285.83C237.066 289.072 238.618 292.382 240.036 295.76C240.711 297.381 241.251 299.07 241.993 300.691C242.668 302.245 243.68 303.664 244.085 305.285C244.288 306.096 243.545 306.906 242.735 306.501H242.6V306.568Z" fill="white"/>
<path d="M277.696 337.913C276.549 334.873 274.254 332.306 272.837 329.334C271.42 326.429 270.475 323.322 270.002 320.079C268.855 312.446 270.34 304.677 271.69 297.179C272.365 293.531 273.107 289.883 273.917 286.235C274.727 282.587 276.144 278.737 276.347 275.021C276.549 271.508 274.322 268.063 272.904 264.956C271.285 261.443 269.867 257.66 267.708 254.485C267.303 253.945 266.493 254.35 266.695 255.025C267.708 258.944 269.597 262.727 271.15 266.374C271.892 268.198 272.837 270.022 273.444 271.914C274.254 274.211 273.714 276.17 273.174 278.466C271.217 285.897 269.597 293.463 268.315 301.029C267.1 308.122 266.155 315.35 267.573 322.443C268.248 325.686 269.327 328.726 270.812 331.698C272.162 334.4 273.917 337.373 276.684 338.791C277.292 339.129 277.966 338.453 277.764 337.845L277.696 337.913Z" fill="#FFCE76"/>
<path d="M435.628 214.561C436.371 215.507 437.113 216.52 437.788 217.601L430.499 214.561C429.554 214.156 428.609 213.818 427.664 213.413C411.601 206.725 394.863 198.349 376.977 199.429C369.486 199.902 362.062 201.861 355.312 205.104C351.938 206.725 348.698 208.819 345.594 210.981C342.489 213.21 339.857 215.98 336.887 218.277C336.347 218.682 335.47 218.007 335.875 217.399C337.967 213.751 341.544 210.778 344.851 208.144C348.226 205.509 351.938 203.415 355.852 201.659C363.007 198.416 370.836 196.525 378.732 196.254C387.439 195.984 396.01 197.876 404.312 200.645C413.491 203.685 422.4 207.671 431.309 211.454C432.321 211.859 433.333 212.264 434.346 212.737C435.628 213.278 436.978 213.818 438.26 214.359C437.45 214.494 436.64 214.561 435.763 214.561H435.628Z" fill="white"/>
<path d="M301.049 235.638C298.821 235.638 296.594 235.3 294.434 234.827C289.913 233.949 285.661 232.26 281.678 229.828C278.709 228.004 275.942 225.91 273.174 223.816C272.837 223.613 272.567 223.343 272.23 223.141C273.039 222.735 273.849 222.397 274.659 222.06C274.254 221.654 273.849 221.249 273.444 220.776L274.052 221.181C274.052 221.181 274.727 221.654 275.064 221.857C277.494 223.546 279.924 225.235 282.421 226.788C288.023 230.166 294.3 232.193 300.846 232.463C302.871 232.463 303.141 235.705 301.049 235.638Z" fill="white"/>
<path d="M197.921 90.3314C195.963 92.5607 194.209 95.0601 193.534 97.9649C192.319 102.626 194.074 107.22 195.221 111.678C196.233 115.731 196.706 119.852 195.423 123.905C194.276 127.486 192.049 130.661 189.214 133.228C175.581 145.657 155.131 143.766 138.123 146.063C128.539 147.346 119.427 150.183 111.598 156.128C104.511 161.532 98.3697 168.152 91.4855 173.894C84.2638 179.907 76.0298 183.69 66.7834 185.176C56.997 186.729 47.0082 185.919 37.1543 185.176C36.6819 185.176 36.4794 184.906 36.4119 184.568C36.0744 184.838 35.332 184.703 35.3995 184.162C35.5345 180.785 36.8843 177.812 38.9091 175.11C41.3388 171.935 44.511 169.436 47.4131 166.666C50.2478 163.964 52.5425 161.127 54.1623 157.547C57.3345 150.454 57.402 142.145 58.0769 134.511C58.7518 126.945 59.8317 119.109 64.2862 112.759C69.1456 105.734 77.2447 103.031 85.1412 100.802C89.1908 99.6537 93.3078 98.5053 97.0874 96.5463C100.799 94.6548 103.837 91.9527 106.334 88.6426C111.328 81.8873 113.893 73.7134 118.01 66.4177C122.397 58.5816 128.741 52.4342 136.773 48.3135C145.614 43.7875 155.401 41.9635 165.254 41.5582C170.654 41.3556 176.121 41.5582 181.52 41.8284C186.717 42.1662 192.049 42.3689 197.178 43.3821C205.817 45.071 214.794 49.8672 217.561 58.8518C222.083 73.3081 205.952 81.4145 198.123 90.3314H197.921Z" fill="#202B59"/>
<path d="M173.488 74.389C173.421 74.8618 172.679 74.8618 172.611 74.389C172.341 72.7677 171.801 70.8762 171.059 69.7278C170.249 68.5118 168.899 67.7688 168.022 67.431C168.899 66.9581 170.114 66.5528 170.924 65.472C171.936 64.1209 172.544 61.2837 172.814 59.0544C172.814 58.6491 173.421 58.6491 173.488 59.0544C173.758 61.081 174.231 63.5805 174.973 64.9315C175.716 66.3501 176.863 66.8906 177.606 67.0257C176.863 67.7012 175.648 68.3767 174.703 69.7278C174.163 70.5384 173.758 72.565 173.421 74.389H173.488Z" fill="white"/>
<path d="M87.571 139.375C87.571 139.375 86.896 137.483 85.6137 136.2C84.3313 134.916 82.3741 134.173 82.3741 134.173C82.3741 134.173 83.9939 133.971 85.6137 132.349C87.031 130.931 87.571 129.039 87.571 129.039C87.571 129.039 87.9084 130.998 89.2583 132.349C90.6081 133.7 92.7678 134.241 92.7678 134.241C92.7678 134.241 91.0131 134.444 89.4607 135.93C87.9084 137.416 87.571 139.375 87.571 139.375Z" fill="white"/>
<path d="M138.798 94.6548C138.798 94.6548 137.92 92.0878 136.165 90.3314C134.411 88.5751 131.778 87.6293 131.778 87.6293C131.778 87.6293 133.938 87.3591 136.165 85.1299C138.123 83.1708 138.798 80.6038 138.798 80.6038C138.798 80.6038 139.27 83.3059 141.025 85.0623C142.78 86.8187 145.817 87.6293 145.817 87.6293C145.817 87.6293 143.387 87.8995 141.362 89.9261C139.337 91.9527 138.798 94.6548 138.798 94.6548Z" fill="white"/>
<path d="M157.425 128.701C157.425 128.701 156.75 126.878 155.536 125.594C154.321 124.311 152.363 123.635 152.363 123.635C152.363 123.635 153.916 123.432 155.536 121.811C156.953 120.392 157.425 118.569 157.425 118.569C157.425 118.569 157.763 120.528 159.045 121.811C160.328 123.095 162.487 123.635 162.487 123.635C162.487 123.635 160.732 123.838 159.315 125.324C157.83 126.81 157.493 128.701 157.493 128.701H157.425Z" fill="white"/>
<path d="M82.1041 143.428C81.9691 143.023 81.7666 142.685 81.4292 142.415C80.5518 141.874 80.1468 141.807 79.7419 141.874C79.4044 141.874 79.1344 141.942 78.8645 142.145C78.5945 142.28 78.3245 142.415 78.1221 142.685C77.9196 142.888 77.7846 143.158 77.7171 143.496C77.5821 143.766 77.5821 144.036 77.5821 144.374C77.8521 145.387 78.0546 145.725 78.392 145.995C79.2694 146.535 79.6744 146.603 80.0793 146.535C80.4168 146.535 80.6868 146.468 80.9567 146.265C81.2267 146.13 81.4967 145.995 81.6991 145.725C81.9016 145.522 82.0366 145.252 82.1041 144.914C82.2391 144.644 82.2391 144.374 82.2391 144.036L82.1041 143.428Z" fill="white"/>
<path d="M272.23 62.1619C271.757 63.5129 271.015 64.7964 270.07 65.9448C267.37 69.1198 263.321 70.6735 259.474 72.2948C250.227 76.2804 245.975 85.6703 235.176 87.0889C230.249 87.7644 224.31 84.7921 224.715 79.1852C224.918 76.4831 226.335 74.0512 227.752 71.7544C235.109 60.4055 248.81 42.7742 264.535 46.4896C271.487 48.1784 274.457 55.8794 272.23 62.1619Z" fill="#202B59"/>
<path d="M184.287 15.145C183.882 19.1982 181.25 22.8461 175.378 24.3998C170.586 25.6157 165.052 24.9402 161.272 21.495C158.235 18.7253 156.48 14.4019 157.29 10.2812C158.1 6.02537 161.542 2.71528 165.457 1.094C176.188 -3.36449 185.165 6.7009 184.287 15.145Z" fill="#202B59"/>
<path d="M245.638 374.256C243.073 373.176 240.846 371.352 238.483 369.933C233.894 367.163 228.832 365.272 223.703 363.786C218.438 362.232 213.039 361.084 207.707 359.665C205.075 358.989 202.443 358.246 199.81 357.368C198.326 356.895 196.841 356.287 195.356 355.747C194.141 355.274 192.926 354.666 191.644 354.531C192.656 356.693 195.221 357.706 197.111 358.584C199.406 359.665 201.768 360.476 204.13 361.219C209.057 362.84 214.119 363.988 219.181 365.339C224.243 366.691 229.305 368.177 234.029 370.473C238.483 372.635 242.533 376.215 247.527 377.094C247.865 377.094 248.337 377.094 248.607 376.756C249.822 374.932 246.65 374.729 245.638 374.256Z" fill="white"/>
<path d="M253.534 358.449C253.197 362.367 252.589 366.285 251.577 370.068C251.105 371.825 250.43 373.513 249.755 375.202C249.215 376.486 248.877 378.107 247.527 378.715C246.583 377.026 247.527 375.608 247.932 374.256C248.405 372.703 248.742 371.149 249.147 369.595C249.957 366.353 250.497 363.043 250.902 359.665C251.239 356.22 251.374 352.707 251.374 349.194C251.374 346.087 251.374 342.777 249.417 340.075C249.08 339.332 249.417 338.656 250.16 338.588C251.847 340.007 252.252 340.548 252.454 341.088C253.467 342.979 253.804 345.141 253.872 347.438C254.007 351.086 253.872 354.801 253.534 358.381V358.449Z" fill="white"/>
<path d="M276.414 353.991C276.077 350.613 275.267 344.736 271.622 343.25C271.15 345.411 272.027 346.965 272.5 348.654C273.04 350.68 273.444 352.64 273.647 354.734C274.052 358.652 273.984 362.637 273.917 366.623C273.782 374.256 273.309 383.106 268.383 389.321C267.91 389.861 268.787 390.604 269.26 390.064C271.825 387.024 273.714 383.309 275.064 379.526C276.414 375.608 276.549 371.149 276.684 367.028C276.819 362.705 276.954 358.246 276.482 353.923H276.414V353.991Z" fill="white"/>
<path d="M435.358 316.161C431.174 316.701 427.057 317.039 422.872 317.715C418.688 318.39 414.571 319.201 410.319 318.863C402.219 318.255 396.213 312.716 388.856 309.946C374.008 304.339 361.387 318.525 350.588 326.361C344.851 330.55 337.494 334.941 330.07 333.59C326.493 332.982 323.659 330.617 320.486 328.996C317.854 327.645 315.02 326.767 312.117 326.294C306.111 325.281 299.834 326.091 294.232 328.523C288.36 331.023 284.648 335.346 280.666 340.075C276.954 344.466 271.825 348.857 265.683 346.695C262.983 345.749 261.093 343.79 258.934 341.966C257.044 340.412 254.884 338.791 252.454 338.791C252.184 338.791 251.914 338.791 251.644 338.791C250.767 338.994 250.497 338.791 250.565 338.453C256.639 336.021 261.701 341.291 266.83 342.371C273.782 343.858 277.899 335.414 281.948 331.293C290.587 322.443 304.221 318.863 316.167 322.241C319.272 323.119 322.106 324.402 324.873 326.091C328.451 328.253 331.488 329.807 335.807 328.861C343.029 327.24 349.171 321.903 354.772 317.309C360.577 312.581 366.449 307.919 373.603 305.555C380.689 303.191 387.574 303.934 394.188 307.379C397.293 309 400.195 310.892 403.434 312.31C406.809 313.864 410.251 314.607 413.963 314.337C420.982 313.932 429.216 310.216 435.763 314.067C436.708 314.607 436.438 315.958 435.358 316.093V316.161Z" fill="#FFCE76"/>
<path d="M137.448 310.959C137.448 310.959 137.245 311.5 136.908 311.5C137.11 311.297 137.245 311.094 137.448 310.959Z" fill="white"/>
<path d="M333.85 163.829C345.293 163.829 354.57 154.544 354.57 143.09C354.57 131.637 345.293 122.352 333.85 122.352C322.407 122.352 313.13 131.637 313.13 143.09C313.13 154.544 322.407 163.829 333.85 163.829Z" fill="white"/>
<path d="M134.343 190.85C132.858 193.62 132.993 196.66 132.926 199.632C132.926 203.28 132.251 206.86 130.833 210.17C129.686 212.805 127.459 216.52 124.152 216.588C121.047 216.723 118.415 212.94 116.998 210.643C113.353 204.699 112.881 197.47 113.96 190.715C114.905 185.041 116.795 177.137 122.059 173.827C116.593 174.773 114.5 179.839 113.016 184.635C111.058 190.85 110.113 197.335 111.463 203.753C112.611 209.09 115.513 215.102 120.305 218.142C125.164 221.181 130.024 217.399 132.386 213.075C134.073 209.968 135.085 206.32 135.355 202.807C135.693 199.159 134.815 195.241 136.57 191.931C137.313 190.512 135.085 189.432 134.343 190.85Z" fill="white"/>
<path d="M158.708 228.275C151.216 226.316 146.154 220.911 143.252 213.953C141.835 210.576 140.755 207.063 139.135 203.753C138.393 202.267 137.583 200.713 136.435 199.429C136.368 199.362 135.018 197.741 134.748 198.349C134.208 199.362 135.49 201.186 135.895 202.132C136.638 203.82 137.313 205.577 137.92 207.333C139.202 210.913 140.35 214.494 142.105 217.871C145.412 224.424 151.081 229.153 158.168 231.044C158.64 231.179 159.248 231.044 159.518 230.571C159.72 230.234 159.923 229.963 159.855 229.558C159.788 228.883 159.383 228.41 158.708 228.275Z" fill="white"/>
<path d="M139.54 208.346C139.337 207.333 137.583 207.468 137.515 208.482C137.38 210.913 137.178 213.345 136.503 215.777C135.76 218.142 134.546 220.438 132.926 222.33C131.306 224.289 129.214 225.775 127.054 227.126C124.827 228.545 122.194 229.423 120.102 231.044C119.63 231.382 119.832 232.328 120.507 232.26C123.274 231.855 125.974 230.436 128.336 229.085C130.833 227.667 133.128 225.843 134.95 223.681C138.325 219.628 140.552 213.751 139.54 208.482V208.346Z" fill="white"/>
<path d="M120.237 216.791C120.237 216.791 119.832 216.318 119.495 216.318C119.225 216.318 118.887 216.318 118.617 216.52L116.593 218.344C116.053 219.29 116.12 219.628 116.323 219.83C116.458 220.033 116.728 220.236 116.998 220.303C117.268 220.303 117.605 220.303 117.807 220.168C118.482 219.628 119.225 219.02 119.9 218.479C120.44 217.466 120.372 217.128 120.237 216.858V216.791Z" fill="white"/>
<path d="M115.783 212.264C115.175 209.765 114.635 207.266 114.028 204.766C113.42 202.267 112.881 199.767 112.273 197.268L111.463 193.823C111.261 192.877 109.911 189.094 112.003 189.432C111.396 187.81 109.978 189.026 109.843 190.175C109.641 191.526 110.248 193.147 110.586 194.431C110.991 196.187 111.396 197.876 111.733 199.632C112.476 202.942 113.218 206.185 113.96 209.495C114.703 212.805 115.175 216.385 116.323 219.628C116.525 220.168 117.335 220.033 117.268 219.425C116.998 217.061 116.255 214.629 115.715 212.332L115.783 212.264Z" fill="white"/>
<path d="M121.25 234.625C120.98 233.206 120.575 231.517 119.697 230.369C119.225 229.761 118.347 230.234 118.482 230.977C118.752 232.26 119.36 233.409 119.697 234.692C119.967 235.976 120.17 237.259 120.17 238.61C120.17 241.312 119.765 244.082 118.415 246.379C115.648 250.972 110.316 252.864 105.726 255.093C105.254 255.296 105.456 255.971 105.996 255.836C111.328 254.282 116.93 251.783 119.832 246.784C121.25 244.42 121.655 241.582 121.722 238.88C121.722 237.462 121.587 235.976 121.25 234.557V234.625Z" fill="white"/>
<path d="M88.9883 226.451C88.7858 227.329 88.4484 228.207 88.0434 229.018C83.7239 238.07 69.5505 241.92 61.7889 235.165C58.2119 232.058 56.3221 227.059 57.0645 222.397C58.4818 212.872 68.5382 208.144 77.3796 209.697C85.2087 211.049 90.8106 218.817 88.9883 226.383V226.451Z" fill="white"/>
<path d="M91.7555 154.642C89.7307 153.899 89.5282 154.034 89.3932 154.304C90.9681 154.574 91.7555 154.687 91.7555 154.642Z" fill="white"/>
<path d="M159.72 56.6225C156.885 56.6225 157.155 61.0135 159.99 61.0135C162.825 61.0135 162.555 56.6225 159.72 56.6225Z" fill="white"/>
<path d="M156.345 89.3857C155.131 89.3857 155.266 91.2772 156.48 91.2772C157.695 91.2772 157.56 89.3857 156.345 89.3857Z" fill="white"/>
<path d="M97.1548 110.732C97.1548 110.732 96.6824 110.462 96.4799 110.53C97.4923 111.205 97.3573 110.935 97.1548 110.732Z" fill="white"/>
<path d="M181.858 111.746C179.225 111.746 179.563 115.799 182.128 115.799C184.692 115.799 184.422 111.746 181.858 111.746Z" fill="white"/>
<path d="M130.159 136.605C129.146 136.605 129.281 138.159 130.226 138.159C131.171 138.159 131.103 136.605 130.159 136.605Z" fill="white"/>
<path d="M165.389 117.285C164.782 117.285 164.849 118.231 165.389 118.231C165.929 118.231 165.929 117.285 165.389 117.285Z" fill="white"/>
<path d="M242.196 70.606C242.196 70.606 241.926 69.998 241.656 69.7953C240.981 69.39 240.711 69.3225 240.373 69.39C238.888 72.0921 239.091 72.3623 239.293 72.565C239.968 72.9703 240.238 73.0379 240.576 72.9703C242.196 70.8762 242.196 70.7411 242.196 70.606Z" fill="white"/>
<path d="M249.89 65.3369C249.417 65.3369 249.485 66.0799 249.89 66.0799C250.295 66.0799 250.295 65.3369 249.89 65.3369Z" fill="white"/>
<path d="M260.823 59.9326C260.148 60.7433 259.406 61.4863 258.731 62.297C258.056 61.8917 257.786 61.4863 257.584 61.081C257.314 60.6757 257.044 60.3379 256.909 59.8651C257.381 58.8518 258.259 57.9736 259.136 57.0278C259.946 57.906 260.418 58.7842 260.891 59.5949V59.9326H260.823Z" fill="white"/>
<path d="M233.557 231.922C229.709 230.436 226.132 228.275 223.095 225.437C222.488 224.897 221.745 225.64 222.015 226.248C221.745 226.451 221.745 226.788 221.745 227.126C221.745 227.734 221.88 228.275 221.948 228.883C222.083 229.963 222.285 231.044 222.42 232.125L223.5 238.813C223.568 239.353 224.108 239.691 224.648 239.353C227.752 237.462 230.722 235.435 233.624 233.206C234.029 232.868 234.096 232.125 233.557 231.922ZM223.028 228.207C223.028 228.207 222.96 227.599 222.825 227.126C225.525 229.423 228.495 231.382 231.734 232.801C229.507 234.489 227.145 236.111 224.783 237.597C224.445 235.57 224.04 233.611 223.703 231.585C223.5 230.436 223.298 229.355 223.028 228.207Z" fill="#36D7BE"/>
<path d="M200.148 109.381C198.326 107.963 195.828 107.017 193.601 108.03C191.644 108.976 190.834 111.138 190.362 113.097C189.754 115.799 189.754 118.501 188.877 121.068C187.932 124.108 186.312 126.945 183.95 129.039C178.483 133.971 170.586 133.633 163.77 134.714C158.573 135.524 151.621 137.348 149.326 142.685C148.179 146.535 149.191 150.521 152.971 151.872C155.603 152.818 157.223 151.399 159.383 150.116C162.622 148.089 166.267 150.116 169.574 150.791C175.783 152.075 181.79 149.373 187.189 146.535C192.386 143.833 197.381 140.456 201.025 135.795C206.762 128.431 208.449 115.731 200.215 109.381H200.148ZM193.264 140.793C188.944 143.968 183.882 146.738 178.753 148.427C175.311 149.508 172.071 149.71 168.562 148.832C165.929 148.157 163.23 147.076 160.463 147.751C157.56 148.495 155.401 152.007 152.228 149.71C149.664 147.887 150.136 144.914 151.284 142.415C152.566 141.199 153.916 140.05 155.468 139.172C157.83 137.956 160.395 137.213 162.96 136.808C167.887 135.93 172.949 135.862 177.808 134.376C182.33 132.957 186.11 130.188 188.472 126.067C189.619 124.175 190.362 122.014 190.901 119.852C191.441 117.555 191.441 115.191 192.049 112.962C192.859 109.922 195.086 108.301 198.123 110.057C200.283 111.34 201.903 113.57 202.848 115.866C204.535 119.987 204.4 124.783 202.848 128.972C201.025 133.836 197.313 137.754 193.196 140.793H193.264Z" fill="#36D7BE"/>
<path d="M181.655 8.59238C180.305 7.10622 178.888 5.75516 177.066 4.87697C175.176 3.99878 173.151 3.79613 171.126 3.72857C168.899 3.72857 165.794 3.52591 163.23 4.20144C159.383 5.14718 156.076 8.05196 154.456 11.9025C151.756 18.32 153.241 26.8992 160.193 29.804C163.837 31.3577 168.022 31.1551 171.869 30.5471C175.378 29.9391 178.82 28.7232 181.588 26.3588C184.017 24.1971 185.772 21.0897 185.907 17.712C186.042 14.1317 184.017 11.0918 181.723 8.59238H181.655ZM181.655 23.3865C177.741 28.1827 169.911 29.6689 164.04 28.7907C161.07 28.3178 158.1 26.8992 156.548 24.1971C155.063 21.495 154.928 17.9822 155.603 15.0099C156.413 11.1594 159.045 7.8493 162.42 6.16048C164.58 5.5525 166.739 5.34984 169.034 5.28229C172.341 5.28229 175.648 5.48495 178.28 7.64664C180.44 9.47057 182.6 12.0376 183.477 14.8073C184.49 17.7796 183.477 20.9546 181.588 23.3865H181.655Z" fill="#36D7BE"/>
<path d="M279.451 51.6236C277.359 49.6646 274.187 49.7321 271.69 49.4619C265.278 48.7188 258.461 48.6513 252.387 51.9614C246.515 55.2039 242.398 61.0135 238.686 67.2283C234.299 73.0379 230.587 79.523 228.967 87.224C227.887 92.2229 228.09 98.9107 232.477 101.41C237.269 104.112 242.668 100.127 246.313 96.5463C250.97 91.9527 254.884 86.7511 260.351 83.5086C265.548 80.4012 271.352 78.307 275.874 73.6459C279.451 69.9305 282.488 64.5938 282.151 58.5816C282.016 56.0145 281.206 53.2449 279.519 51.6236H279.451ZM275.334 71.4166C271.42 75.8076 266.29 77.9017 261.566 80.5363C257.179 82.9682 253.467 86.0756 249.89 89.9937C246.313 93.9793 242.331 99.0458 237.336 100.059C234.906 100.532 232.274 99.7889 230.992 97.0192C229.844 94.5873 229.912 91.4798 230.384 88.7777C232.274 77.2937 239.496 67.5661 246.245 59.2571C247.46 57.906 248.742 56.6901 250.16 55.6092C254.749 52.0289 260.148 50.9481 265.48 50.9481C267.978 50.9481 270.542 51.2183 273.039 51.5561C276.077 51.9614 279.114 52.2316 280.194 56.3523C281.611 61.9592 278.709 67.7012 275.469 71.3491H275.334V71.4166Z" fill="#FFCE76"/>
<path d="M482.738 226.518L481.253 222.06C480.915 220.979 480.645 219.29 479.431 218.75C478.891 218.479 478.216 218.547 477.676 218.614C476.933 218.75 476.191 218.952 475.449 219.155C474.706 219.358 473.896 219.56 473.154 219.695C472.749 219.695 472.411 219.898 472.006 219.966C471.601 219.966 471.331 220.236 471.062 220.438C471.197 222.6 471.399 224.221 471.601 225.775C471.736 226.923 471.804 228.41 473.019 228.883C473.626 229.085 474.234 229.018 474.774 228.883C475.584 228.68 476.461 228.477 477.271 228.342C478.958 227.937 480.645 227.599 482.333 227.126C482.603 227.126 482.738 226.721 482.67 226.451L482.738 226.518ZM475.719 227.869C475.044 228.004 474.369 228.342 473.694 228.275C473.019 228.275 472.749 227.734 472.614 227.126C472.479 226.451 472.411 225.775 472.276 225.1C472.074 223.816 471.871 222.465 471.669 221.181C472.411 221.181 472.749 221.046 473.019 220.911L475.044 220.438L477.068 219.966C477.608 219.83 478.418 219.493 478.958 219.763C479.431 219.966 479.633 220.506 479.768 220.979C479.97 221.587 480.173 222.262 480.375 222.87C480.78 224.019 481.118 225.235 481.523 226.383C480.308 226.721 479.093 226.991 477.878 227.329L475.786 227.869H475.719Z" fill="#FFCE76"/>
<path d="M205.277 197.673C204.062 196.322 202.173 195.984 200.485 196.795C198.596 197.741 197.381 199.835 197.921 201.929C198.056 202.402 198.798 202.199 198.663 201.659C198.326 200.105 199.203 198.551 200.553 197.808C201.768 197.065 203.253 197.133 204.332 198.146C205.277 199.024 205.75 200.375 205.48 201.591C205.277 202.875 204.197 203.753 202.915 204.023C202.105 204.158 201.295 204.023 200.553 203.753C201.16 203.753 201.228 203.28 200.958 203.145C200.35 202.74 199.54 202.604 198.866 202.402C198.393 202.267 198.123 202.875 198.326 203.212C200.215 206.185 205.345 205.779 206.425 202.267C206.897 200.645 206.425 198.889 205.277 197.673Z" fill="#FF88C4"/>
</g>
<defs>
<clipPath id="clip0_6_3">
<rect width="496" height="437" fill="white"/>
</clipPath>
</defs>
</svg>
